<svg width="130" height="126" viewBox="0 0 130 126" fill="none" xmlns="http://www.w3.org/2000/svg">
	<g clip-path="url(#clip0_298_239)">
	<path d="M5.89169 59.6468C4.26685 53.5829 7.90823 47.323 14.0118 45.6875L58.276 33.827C64.3797 32.1915 70.6631 35.792 72.288 41.856L84.0715 85.8328C85.6964 91.8968 82.055 98.1566 75.9514 99.7921L31.6872 111.653C25.5835 113.288 19.3001 109.688 17.6752 103.624L5.89169 59.6468ZM101.266 28.8993C103.322 29.3794 104.943 30.9335 105.486 32.9606L117.27 76.9374C117.813 78.9644 117.186 81.1208 115.646 82.5647C114.105 84.0085 111.899 84.4892 109.883 83.8141L90.3383 77.2676L87.4458 76.2935L86.6587 73.356L80.7669 51.3676L79.9798 48.4301L81.9978 46.1403L95.651 30.6984C97.0463 29.1277 99.1927 28.4237 101.266 28.8993V28.8993Z" fill="white"/>
	</g>
	<g clip-path="url(#clip1_298_239)">
	<path d="M12.5709 48.6747C10.946 42.6107 14.5874 36.3508 20.691 34.7153L64.9552 22.8548C71.0589 21.2193 77.3423 24.8199 78.9672 30.8838L90.7507 74.8606C92.3756 80.9246 88.7342 87.1845 82.6306 88.8199L38.3664 100.68C32.2627 102.316 25.9793 98.7154 24.3544 92.6514L12.5709 48.6747ZM107.945 17.9271C110.001 18.4072 111.622 19.9614 112.165 21.9884L123.949 65.9652C124.492 67.9922 123.865 70.1487 122.325 71.5925C120.784 73.0363 118.578 73.517 116.562 72.8419L97.0175 66.2954L94.125 65.3214L93.3379 62.3838L87.4461 40.3955L86.659 37.4579L88.677 35.1681L102.33 19.7262C103.725 18.1556 105.872 17.4516 107.945 17.9271V17.9271Z" fill="#9271E7"/>
	</g>
	<defs>
	<clipPath id="clip0_298_239">
	<rect width="103.108" height="91.0562" fill="white" transform="translate(0 37.6584) rotate(-15)"/>
	</clipPath>
	<clipPath id="clip1_298_239">
	<rect width="103.108" height="91.0562" fill="white" transform="translate(6.6792 26.6863) rotate(-15)"/>
	</clipPath>
	</defs>
	</svg>
	