<svg width="299" height="237" viewBox="0 0 299 237" fill="none" xmlns="http://www.w3.org/2000/svg">
	<g clip-path="url(#clip0_313_423)">
	<path d="M92.9498 165.75C144.296 165.75 185.9 130.659 185.9 87.375C185.9 44.0906 144.296 9 92.9498 9C41.6038 9 -0.000236155 44.0906 -0.000236155 87.375C-0.000236155 104.564 6.56883 120.462 17.696 133.42C16.132 137.606 13.8082 141.302 11.3504 144.42C9.20539 147.18 7.0157 149.318 5.40695 150.787C4.60258 151.5 3.93226 152.079 3.48539 152.435C3.26195 152.613 3.0832 152.747 2.99383 152.791L2.90445 152.88C0.446639 154.706 -0.625861 157.912 0.357264 160.807C1.34039 163.702 4.06633 165.75 7.14976 165.75C16.8916 165.75 26.7229 163.256 34.9007 160.184C39.012 158.625 42.8551 156.888 46.2066 155.107C59.9257 161.876 75.8791 165.75 92.9498 165.75ZM200.2 87.375C200.2 137.384 155.914 175.057 103.451 179.555C114.31 212.686 150.329 237 193.05 237C210.12 237 226.074 233.126 239.838 226.357C243.189 228.138 246.988 229.875 251.099 231.434C259.277 234.506 269.108 237 278.85 237C281.933 237 284.704 234.996 285.642 232.057C286.581 229.118 285.553 225.912 283.05 224.086L282.961 223.997C282.872 223.908 282.693 223.819 282.469 223.641C282.023 223.284 281.352 222.75 280.548 221.993C278.939 220.523 276.749 218.386 274.604 215.625C272.147 212.508 269.823 208.767 268.259 204.626C279.386 191.712 285.955 175.814 285.955 158.58C285.955 117.255 248.015 83.3672 199.887 80.4281C200.066 82.6992 200.155 85.0148 200.155 87.3305L200.2 87.375Z" fill="white"/>
	</g>
	<g clip-path="url(#clip1_313_423)">
	<path d="M105.95 156.75C157.296 156.75 198.9 121.659 198.9 78.375C198.9 35.0906 157.296 0 105.95 0C54.6038 0 12.9998 35.0906 12.9998 78.375C12.9998 95.5641 19.5688 111.462 30.696 124.42C29.132 128.606 26.8082 132.302 24.3504 135.42C22.2054 138.18 20.0157 140.318 18.407 141.787C17.6026 142.5 16.9323 143.079 16.4854 143.435C16.262 143.613 16.0832 143.747 15.9938 143.791L15.9045 143.88C13.4466 145.706 12.3741 148.912 13.3573 151.807C14.3404 154.702 17.0663 156.75 20.1498 156.75C29.8916 156.75 39.7229 154.256 47.9007 151.184C52.012 149.625 55.8551 147.888 59.2066 146.107C72.9257 152.876 88.8791 156.75 105.95 156.75ZM213.2 78.375C213.2 128.384 168.914 166.057 116.451 170.555C127.31 203.686 163.329 228 206.05 228C223.12 228 239.074 224.126 252.838 217.357C256.189 219.138 259.988 220.875 264.099 222.434C272.277 225.506 282.108 228 291.85 228C294.933 228 297.704 225.996 298.642 223.057C299.581 220.118 298.553 216.912 296.05 215.086L295.961 214.997C295.872 214.908 295.693 214.819 295.469 214.641C295.023 214.284 294.352 213.75 293.548 212.993C291.939 211.523 289.749 209.386 287.604 206.625C285.147 203.508 282.823 199.767 281.259 195.626C292.386 182.712 298.955 166.814 298.955 149.58C298.955 108.255 261.015 74.3672 212.887 71.4281C213.066 73.6992 213.155 76.0148 213.155 78.3305L213.2 78.375Z" fill="#9271E7"/>
	</g>
	<defs>
	<clipPath id="clip0_313_423">
	<rect width="286" height="228" fill="white" transform="translate(0 9)"/>
	</clipPath>
	<clipPath id="clip1_313_423">
	<rect width="286" height="228" fill="white" transform="translate(13)"/>
	</clipPath>
	</defs>
	</svg>
	