<svg width="90" height="91" viewBox="0 0 90 91" fill="none" xmlns="http://www.w3.org/2000/svg">
	<g clip-path="url(#clip0_298_242)">
	<path d="M24.8051 19.3516C27.1744 18.7872 29.5609 20.2535 30.1253 22.6229L32.0325 30.6298L44.1322 25.5284L41.878 16.0945C41.3136 13.7251 42.7799 11.3387 45.1493 10.7743C47.5187 10.2099 49.9051 11.6762 50.4695 14.0456L52.3895 22.0471L59.7943 18.9251C62.0463 17.9757 64.6328 19.028 65.5822 21.28C66.5317 23.532 65.4794 26.1184 63.2274 27.0679L54.4612 30.7638L58.6173 48.192L66.0222 45.07C68.2741 44.1205 70.8606 45.1729 71.8101 47.4248C72.7595 49.6768 71.7072 52.2633 69.4552 53.2128L60.689 56.9087L62.9433 66.3427C63.5077 68.7121 62.0413 71.0985 59.6719 71.6629C57.3026 72.2273 54.9161 70.7609 54.3517 68.3915L52.4498 60.3974L40.3375 65.5041L42.5917 74.9381C43.1561 77.3075 41.6897 79.6939 39.3204 80.2583C36.951 80.8227 34.5646 79.3563 34.0002 76.987L32.0748 68.9727L24.67 72.0947C22.418 73.0442 19.8315 71.9918 18.882 69.7398C17.9326 67.4879 18.9849 64.9014 21.2369 63.9519L30.0031 60.256L25.847 42.8279L18.4421 45.9498C16.1901 46.8993 13.6037 45.847 12.6542 43.595C11.7047 41.343 12.7571 38.7565 15.009 37.8071L23.7753 34.1111L21.521 24.6772C20.9566 22.3078 22.423 19.9214 24.7923 19.357L24.8051 19.3516ZM34.1042 39.3465L38.2604 56.7746L50.36 51.6733L46.2039 34.2452L34.1042 39.3465Z" fill="white"/>
	</g>
	<g clip-path="url(#clip1_298_242)">
	<path d="M29.9223 18.4285C32.2916 17.8641 34.678 19.3304 35.2424 21.6998L37.1497 29.7067L49.2494 24.6053L46.9952 15.1714C46.4308 12.802 47.8971 10.4156 50.2665 9.85117C52.6359 9.28677 55.0223 10.7531 55.5867 13.1225L57.5067 21.124L64.9115 18.002C67.1635 17.0526 69.75 18.1049 70.6994 20.3569C71.6489 22.6089 70.5966 25.1953 68.3446 26.1448L59.5784 29.8407L63.7345 47.2689L71.1393 44.1469C73.3913 43.1974 75.9778 44.2498 76.9273 46.5017C77.8767 48.7537 76.8244 51.3402 74.5724 52.2897L65.8062 55.9856L68.0604 65.4196C68.6248 67.789 67.1585 70.1754 64.7891 70.7398C62.4197 71.3042 60.0333 69.8378 59.4689 67.4685L57.567 59.4743L45.4546 64.581L47.7089 74.015C48.2733 76.3844 46.8069 78.7708 44.4375 79.3352C42.0682 79.8996 39.6818 78.4333 39.1174 76.0639L37.192 68.0496L29.7872 71.1716C27.5352 72.1211 24.9487 71.0687 23.9992 68.8168C23.0498 66.5648 24.1021 63.9783 26.3541 63.0288L35.1203 59.3329L30.9641 41.9048L23.5593 45.0267C21.3073 45.9762 18.7208 44.9239 17.7714 42.6719C16.8219 40.4199 17.8742 37.8334 20.1262 36.884L28.8924 33.188L26.6382 23.7541C26.0738 21.3847 27.5402 18.9983 29.9095 18.4339L29.9223 18.4285ZM39.2214 38.4234L43.3776 55.8515L55.4772 50.7502L51.3211 33.3221L39.2214 38.4234Z" fill="#9271E7"/>
	</g>
	<defs>
	<clipPath id="clip0_298_242">
	<rect width="61.8583" height="70.6952" fill="white" transform="translate(0 24.9546) rotate(-22.8608)"/>
	</clipPath>
	<clipPath id="clip1_298_242">
	<rect width="61.8583" height="70.6952" fill="white" transform="translate(5.11719 24.0315) rotate(-22.8608)"/>
	</clipPath>
	</defs>
	</svg>
	