<svg width="91" height="82" viewBox="0 0 91 82" fill="none" xmlns="http://www.w3.org/2000/svg">
	<path d="M7.62344 48.1109L36.5637 75.1293C37.7648 76.2504 39.3504 76.875 41 76.875C42.6496 76.875 44.2352 76.2504 45.4363 75.1293L74.3766 48.1109C79.2453 43.5785 82 37.2203 82 30.5738V29.6449C82 18.45 73.9121 8.90469 62.8773 7.06289C55.5742 5.84571 48.143 8.23203 42.9219 13.4531L41 15.375L39.0781 13.4531C33.857 8.23203 26.4258 5.84571 19.1227 7.06289C8.08789 8.90469 0 18.45 0 29.6449V30.5738C0 37.2203 2.75469 43.5785 7.62344 48.1109Z" fill="white"/>
	<path d="M16.6234 48.1109L45.5637 75.1293C46.7648 76.2504 48.3504 76.875 50 76.875C51.6496 76.875 53.2352 76.2504 54.4363 75.1293L83.3766 48.1109C88.2453 43.5785 91 37.2203 91 30.5738V29.6449C91 18.45 82.9121 8.90469 71.8773 7.06289C64.5742 5.84571 57.143 8.23203 51.9219 13.4531L50 15.375L48.0781 13.4531C42.857 8.23203 35.4258 5.84571 28.1227 7.06289C17.0879 8.90469 9 18.45 9 29.6449V30.5738C9 37.2203 11.7547 43.5785 16.6234 48.1109Z" fill="#9271E7"/>
	</svg>
	