<svg width="92" height="89" viewBox="0 0 92 89" fill="none" xmlns="http://www.w3.org/2000/svg">
	<g clip-path="url(#clip0_298_240)">
	<path d="M15.6516 16.2658C16.9051 11.7112 21.6272 9.0274 26.1817 10.2809L75.7266 23.9167C80.2811 25.1702 82.9649 29.8923 81.7114 34.4468L70.3483 75.7342C69.0948 80.2887 64.3727 82.9725 59.8182 81.719L10.2733 68.0833C5.71876 66.8298 3.03493 62.1077 4.28843 57.5532L15.6516 16.2658ZM53.6475 41.5048C53.3012 40.4934 52.4849 39.7275 51.4657 39.447C50.4464 39.1664 49.3402 39.4033 48.5381 40.0986L32.7821 53.4726L30.5383 48.2609C30.1472 47.3621 29.3742 46.6914 28.4452 46.4357C27.5162 46.18 26.4959 46.3572 25.7129 46.9329L14.6146 54.9821C13.6106 55.7051 13.1171 56.9434 13.3385 58.1563C13.5599 59.3692 14.4554 60.3513 15.6425 60.678L28.0287 64.087L32.1574 65.2233L58.9942 72.6093C60.1425 72.9254 61.3745 72.5843 62.1841 71.7106C62.9936 70.8369 63.2664 69.5935 62.8805 68.474L53.6475 41.5048ZM26.6932 32.6291C30.1123 33.5701 33.6498 31.5595 34.5908 28.1404C35.5318 24.7213 33.5213 21.1839 30.1022 20.2429C26.683 19.3018 23.1456 21.3124 22.2046 24.7315C21.2636 28.1506 23.2741 31.6881 26.6932 32.6291Z" fill="white"/>
	</g>
	<g clip-path="url(#clip1_298_240)">
	<path d="M21.772 12.3862C23.0255 7.83172 27.7476 5.14789 32.3022 6.40138L81.847 20.0372C86.4016 21.2906 89.0854 26.0127 87.8319 30.5673L76.4688 71.8547C75.2153 76.4092 70.4932 79.093 65.9386 77.8395L16.3938 64.2037C11.8392 62.9502 9.15541 58.2282 10.4089 53.6736L21.772 12.3862ZM59.7679 37.6253C59.4217 36.6139 58.6054 35.848 57.5861 35.5674C56.5669 35.2869 55.4607 35.5238 54.6586 36.2191L38.9026 49.5931L36.6588 44.3814C36.2677 43.4826 35.4946 42.8118 34.5657 42.5562C33.6367 42.3005 32.6164 42.4777 31.8334 43.0533L20.7351 51.1026C19.7311 51.8256 19.2376 53.0638 19.459 54.2768C19.6803 55.4897 20.5759 56.4718 21.7629 56.7985L34.1492 60.2074L38.2779 61.3438L65.1147 68.7298C66.263 69.0458 67.495 68.7048 68.3045 67.8311C69.1141 66.9574 69.3869 65.7139 69.001 64.5945L59.7679 37.6253ZM32.8137 28.7496C36.2328 29.6906 39.7703 27.68 40.7113 24.2609C41.6523 20.8418 39.6418 17.3043 36.2226 16.3633C32.8035 15.4223 29.2661 17.4329 28.3251 20.852C27.384 24.2711 29.3946 27.8085 32.8137 28.7496Z" fill="#9271E7"/>
	</g>
	<defs>
	<clipPath id="clip0_298_240">
	<rect width="68.5161" height="68.5161" fill="white" transform="translate(19.0605 3.87952) rotate(15.388)"/>
	</clipPath>
	<clipPath id="clip1_298_240">
	<rect width="68.5161" height="68.5161" fill="white" transform="translate(25.181) rotate(15.388)"/>
	</clipPath>
	</defs>
	</svg>
	