<svg width="210" height="216" viewBox="0 0 210 216" fill="none" xmlns="http://www.w3.org/2000/svg">
	<g clip-path="url(#clip0_298_241)">
	<path d="M84.3347 48.4391C91.6931 45.9499 99.687 49.8934 102.176 57.2518L103.263 60.4811C105.829 68.0317 107.063 75.9117 106.971 83.7794L143.507 62.6857C150.23 58.8038 158.834 61.1094 162.716 67.8329C166.422 74.252 164.507 82.3604 158.493 86.4753C161.692 87.504 164.514 89.6972 166.316 92.8179C169.744 98.7549 168.338 106.163 163.346 110.466C165.517 111.649 167.411 113.464 168.744 115.773C171.864 121.177 170.989 127.806 167.026 132.191C167.687 132.926 168.301 133.755 168.828 134.669C172.71 141.392 170.404 149.997 163.681 153.879L145.033 164.645C140.212 167.428 134.698 168.718 129.151 168.368L115.618 167.487C106.236 166.882 97.7824 161.614 93.0803 153.47L87.4699 143.752L80.4387 131.574L76.7912 125.256C72.5139 117.848 71.86 108.922 74.9388 100.954L75.952 98.3731C79.5701 89.1124 79.7972 78.9002 76.6084 69.51L75.522 66.2807C73.0328 58.9223 76.9763 50.9284 84.3347 48.4391V48.4391ZM36.244 130.026L52.482 120.651C56.9728 118.059 62.6957 119.592 65.2885 124.083L98.101 180.916C100.694 185.407 99.1603 191.13 94.6695 193.722L78.4315 203.097C73.9407 205.69 68.2178 204.157 65.625 199.666L32.8125 142.833C30.2197 138.342 31.7532 132.619 36.244 130.026Z" fill="white"/>
	</g>
	<g clip-path="url(#clip1_298_241)">
	<path d="M89.3347 37.4391C96.6931 34.9499 104.687 38.8934 107.176 46.2518L108.263 49.4811C110.829 57.0317 112.063 64.9117 111.971 72.7794L148.507 51.6857C155.23 47.8038 163.834 50.1094 167.716 56.8329C171.422 63.252 169.507 71.3604 163.493 75.4753C166.692 76.504 169.514 78.6972 171.316 81.8179C174.744 87.7549 173.338 95.1633 168.346 99.4663C170.517 100.649 172.411 102.464 173.744 104.773C176.864 110.177 175.989 116.806 172.026 121.191C172.687 121.926 173.301 122.755 173.828 123.669C177.71 130.392 175.404 138.997 168.681 142.879L150.033 153.645C145.212 156.428 139.698 157.718 134.151 157.368L120.618 156.487C111.236 155.882 102.782 150.614 98.0803 142.47L92.4699 132.752L85.4387 120.574L81.7912 114.256C77.5139 106.848 76.86 97.9222 79.9388 89.954L80.952 87.3731C84.5701 78.1124 84.7972 67.9002 81.6084 58.51L80.522 55.2807C78.0328 47.9223 81.9763 39.9284 89.3347 37.4391V37.4391ZM41.244 119.026L57.482 109.651C61.9728 107.059 67.6957 108.592 70.2885 113.083L103.101 169.916C105.694 174.407 104.16 180.13 99.6695 182.722L83.4315 192.097C78.9407 194.69 73.2178 193.157 70.625 188.666L37.8125 131.833C35.2197 127.342 36.7532 121.619 41.244 119.026Z" fill="#9271E7"/>
	</g>
	<defs>
	<clipPath id="clip0_298_241">
	<rect width="150" height="150" fill="white" transform="translate(0 86) rotate(-30)"/>
	</clipPath>
	<clipPath id="clip1_298_241">
	<rect width="150" height="150" fill="white" transform="translate(5 75) rotate(-30)"/>
	</clipPath>
	</defs>
	</svg>
	