<svg width="155" height="159" viewBox="0 0 155 159" fill="none" xmlns="http://www.w3.org/2000/svg">
	<g clip-path="url(#clip0_312_418)">
	<path d="M97.8657 134.937C104.206 114.931 117.827 67.1099 109.839 46.2322C100.152 20.9115 71.8277 8.19769 46.604 17.8479C21.3803 27.4982 8.77533 55.8709 18.4627 81.1916C26.4502 102.069 68.5118 128.587 86.5864 139.252C90.9116 141.787 96.3371 139.711 97.8657 134.937V134.937ZM69.9999 78.9999C61.6 82.2136 52.1476 77.9708 48.9215 69.5385C45.6955 61.1062 49.902 51.6376 58.302 48.4239C66.7019 45.2102 76.1543 49.4531 79.3804 57.8853C82.6064 66.3176 78.3999 75.7862 69.9999 78.9999Z" fill="white"/>
	</g>
	<g clip-path="url(#clip1_312_418)">
	<path d="M112.95 135.568C119.29 115.562 132.911 67.7417 124.923 46.864C115.236 21.5433 86.912 8.82952 61.6882 18.4798C36.4645 28.13 23.8596 56.5027 33.5469 81.8234C41.5344 102.701 83.596 129.218 101.671 139.884C105.996 142.419 111.421 140.343 112.95 135.568V135.568ZM85.0842 79.6317C76.6842 82.8455 67.2318 78.6026 64.0058 70.1703C60.7797 61.738 64.9862 52.2695 73.3862 49.0558C81.7862 45.842 91.2385 50.0849 94.4646 58.5172C97.6907 66.9495 93.4841 76.418 85.0842 79.6317Z" fill="#9271E7"/>
	</g>
	<defs>
	<clipPath id="clip0_312_418">
	<rect width="97.8357" height="130.949" fill="white" transform="translate(0.915771 35.3276) rotate(-20.9362)"/>
	</clipPath>
	<clipPath id="clip1_312_418">
	<rect width="97.8357" height="130.949" fill="white" transform="translate(16 35.9595) rotate(-20.9362)"/>
	</clipPath>
	</defs>
	</svg>
	