<svg width="384" height="389" viewBox="0 0 384 389" fill="none" xmlns="http://www.w3.org/2000/svg">
	<g clip-path="url(#clip0_313_428)">
	<path d="M262.262 197.564C294.436 206.387 327.691 187.464 336.505 155.319C345.32 123.173 326.368 89.9352 294.194 81.113C262.02 72.2908 228.765 91.2134 219.951 123.359C219.285 125.785 218.741 128.244 218.396 130.693L153.456 143.536C145.792 130.544 133.222 120.446 117.5 116.134C85.3256 107.312 52.0709 126.235 43.2565 158.38C34.4422 190.526 53.3943 223.764 85.5683 232.586C101.291 236.897 117.253 234.622 130.472 227.357L179.779 271.527C178.827 273.809 178.057 276.141 177.375 278.628C168.561 310.773 187.513 344.011 219.687 352.833C251.861 361.655 285.116 342.733 293.93 310.587C302.745 278.442 283.792 245.204 251.619 236.382C235.896 232.07 219.934 234.345 206.715 241.611L157.407 197.441C158.359 195.159 159.13 192.827 159.811 190.34C160.493 187.853 161.02 185.455 161.366 183.006L226.306 170.163C233.97 183.155 246.54 193.253 262.262 197.564Z" fill="white"/>
	</g>
	<g clip-path="url(#clip1_313_428)">
	<path d="M287.788 195.231C319.962 204.054 353.217 185.131 362.031 152.986C370.846 120.84 351.893 87.6022 319.719 78.78C287.546 69.9578 254.291 88.8804 245.476 121.026C244.811 123.452 244.267 125.911 243.922 128.36L178.982 141.203C171.318 128.211 158.748 118.113 143.026 113.801C110.852 104.979 77.5968 123.902 68.7824 156.047C59.968 188.193 78.9202 221.431 111.094 230.253C126.817 234.564 142.779 232.289 155.998 225.024L205.305 269.194C204.353 271.476 203.583 273.808 202.901 276.295C194.087 308.44 213.039 341.678 245.213 350.5C277.387 359.322 310.642 340.4 319.456 308.254C328.271 276.109 309.318 242.871 277.144 234.049C261.422 229.737 245.459 232.012 232.241 239.278L182.933 195.108C183.885 192.826 184.655 190.494 185.337 188.007C186.019 185.52 186.546 183.122 186.891 180.673L251.832 167.83C259.496 180.822 272.065 190.92 287.788 195.231Z" fill="#9271E7"/>
	</g>
	<defs>
	<clipPath id="clip0_313_428">
	<rect width="282" height="322" fill="white" transform="translate(85.8315 3.11157) rotate(15.3338)"/>
	</clipPath>
	<clipPath id="clip1_313_428">
	<rect width="282" height="322" fill="white" transform="translate(111.357 0.778564) rotate(15.3338)"/>
	</clipPath>
	</defs>
	</svg>
	