<svg width="749" height="621" viewBox="0 0 749 621" fill="none" xmlns="http://www.w3.org/2000/svg">
	<g clip-path="url(#clip0_0_1)">
	<path d="M24.8051 549.352C27.1744 548.787 29.5609 550.254 30.1253 552.623L32.0325 560.63L44.1322 555.528L41.878 546.094C41.3136 543.725 42.7799 541.339 45.1493 540.774C47.5187 540.21 49.9051 541.676 50.4695 544.046L52.3895 552.047L59.7943 548.925C62.0463 547.976 64.6328 549.028 65.5822 551.28C66.5317 553.532 65.4794 556.118 63.2274 557.068L54.4612 560.764L58.6173 578.192L66.0222 575.07C68.2741 574.121 70.8606 575.173 71.8101 577.425C72.7595 579.677 71.7072 582.263 69.4552 583.213L60.689 586.909L62.9433 596.343C63.5077 598.712 62.0413 601.098 59.6719 601.663C57.3026 602.227 54.9161 600.761 54.3517 598.392L52.4498 590.397L40.3375 595.504L42.5917 604.938C43.1561 607.307 41.6897 609.694 39.3204 610.258C36.951 610.823 34.5646 609.356 34.0002 606.987L32.0748 598.973L24.67 602.095C22.418 603.044 19.8315 601.992 18.882 599.74C17.9326 597.488 18.9849 594.901 21.2369 593.952L30.0031 590.256L25.847 572.828L18.4421 575.95C16.1901 576.899 13.6037 575.847 12.6542 573.595C11.7047 571.343 12.7571 568.757 15.009 567.807L23.7753 564.111L21.521 554.677C20.9566 552.308 22.423 549.921 24.7923 549.357L24.8051 549.352ZM34.1042 569.347L38.2604 586.775L50.36 581.673L46.2039 564.245L34.1042 569.347Z" fill="white"/>
	</g>
	<g clip-path="url(#clip1_0_1)">
	<path d="M29.9223 548.428C32.2916 547.864 34.678 549.33 35.2424 551.7L37.1497 559.707L49.2494 554.605L46.9952 545.171C46.4308 542.802 47.8971 540.416 50.2665 539.851C52.6359 539.287 55.0223 540.753 55.5867 543.122L57.5067 551.124L64.9115 548.002C67.1635 547.053 69.75 548.105 70.6994 550.357C71.6489 552.609 70.5966 555.195 68.3446 556.145L59.5784 559.841L63.7345 577.269L71.1393 574.147C73.3913 573.197 75.9778 574.25 76.9273 576.502C77.8767 578.754 76.8244 581.34 74.5724 582.29L65.8062 585.986L68.0604 595.42C68.6248 597.789 67.1585 600.175 64.7891 600.74C62.4197 601.304 60.0333 599.838 59.4689 597.468L57.567 589.474L45.4546 594.581L47.7089 604.015C48.2733 606.384 46.8069 608.771 44.4376 609.335C42.0682 609.9 39.6818 608.433 39.1174 606.064L37.192 598.05L29.7872 601.172C27.5352 602.121 24.9487 601.069 23.9992 598.817C23.0498 596.565 24.1021 593.978 26.3541 593.029L35.1203 589.333L30.9641 571.905L23.5593 575.027C21.3073 575.976 18.7208 574.924 17.7714 572.672C16.8219 570.42 17.8742 567.833 20.1262 566.884L28.8924 563.188L26.6382 553.754C26.0738 551.385 27.5402 548.998 29.9095 548.434L29.9223 548.428ZM39.2214 568.423L43.3776 585.852L55.4772 580.75L51.3211 563.322L39.2214 568.423Z" fill="#9271E7"/>
	</g>
	<g clip-path="url(#clip2_0_1)">
	<path d="M31.8917 59.6468C30.2668 53.5829 33.9082 47.323 40.0118 45.6875L84.276 33.827C90.3797 32.1915 96.6631 35.792 98.288 41.856L110.072 85.8328C111.696 91.8968 108.055 98.1566 101.951 99.7921L57.6872 111.653C51.5835 113.288 45.3001 109.688 43.6752 103.624L31.8917 59.6468ZM127.266 28.8993C129.322 29.3794 130.943 30.9335 131.486 32.9606L143.27 76.9373C143.813 78.9644 143.186 81.1208 141.646 82.5647C140.105 84.0085 137.899 84.4892 135.883 83.8141L116.338 77.2676L113.446 76.2935L112.659 73.356L106.767 51.3676L105.98 48.4301L107.998 46.1403L121.651 30.6984C123.046 29.1277 125.193 28.4237 127.266 28.8993Z" fill="white"/>
	</g>
	<g clip-path="url(#clip3_0_1)">
	<path d="M38.5709 48.6747C36.946 42.6107 40.5874 36.3508 46.691 34.7153L90.9552 22.8548C97.0589 21.2193 103.342 24.8199 104.967 30.8838L116.751 74.8606C118.376 80.9246 114.734 87.1845 108.631 88.8199L64.3664 100.68C58.2627 102.316 51.9793 98.7154 50.3544 92.6514L38.5709 48.6747ZM133.945 17.9271C136.001 18.4072 137.622 19.9614 138.165 21.9884L149.949 65.9652C150.492 67.9922 149.865 70.1487 148.325 71.5925C146.784 73.0363 144.578 73.517 142.562 72.8419L123.018 66.2954L120.125 65.3213L119.338 62.3838L113.446 40.3955L112.659 37.4579L114.677 35.1681L128.33 19.7262C129.725 18.1556 131.872 17.4516 133.945 17.9271Z" fill="#9271E7"/>
	</g>
	<g clip-path="url(#clip4_0_1)">
	<path d="M507.652 69.2658C508.905 64.7112 513.627 62.0274 518.182 63.2809L567.727 76.9167C572.281 78.1702 574.965 82.8923 573.711 87.4468L562.348 128.734C561.095 133.289 556.373 135.973 551.818 134.719L502.273 121.083C497.719 119.83 495.035 115.108 496.288 110.553L507.652 69.2658ZM545.647 94.5048C545.301 93.4934 544.485 92.7275 543.466 92.447C542.446 92.1664 541.34 92.4033 540.538 93.0986L524.782 106.473L522.538 101.261C522.147 100.362 521.374 99.6914 520.445 99.4357C519.516 99.18 518.496 99.3572 517.713 99.9329L506.615 107.982C505.611 108.705 505.117 109.943 505.338 111.156C505.56 112.369 506.455 113.351 507.642 113.678L520.029 117.087L524.157 118.223L550.994 125.609C552.143 125.925 553.375 125.584 554.184 124.711C554.994 123.837 555.266 122.593 554.881 121.474L545.647 94.5048ZM518.693 85.6291C522.112 86.5701 525.65 84.5595 526.591 81.1404C527.532 77.7213 525.521 74.1839 522.102 73.2428C518.683 72.3018 515.146 74.3124 514.205 77.7315C513.264 81.1506 515.274 84.6881 518.693 85.6291Z" fill="white"/>
	</g>
	<g clip-path="url(#clip5_0_1)">
	<path d="M513.772 65.3862C515.026 60.8317 519.748 58.1479 524.302 59.4014L573.847 73.0372C578.402 74.2906 581.085 79.0127 579.832 83.5673L568.469 124.855C567.215 129.409 562.493 132.093 557.939 130.84L508.394 117.204C503.839 115.95 501.155 111.228 502.409 106.674L513.772 65.3862ZM551.768 90.6253C551.422 89.6139 550.605 88.848 549.586 88.5674C548.567 88.2869 547.461 88.5238 546.659 89.2191L530.903 102.593L528.659 97.3814C528.268 96.4826 527.495 95.8118 526.566 95.5562C525.637 95.3005 524.616 95.4777 523.833 96.0533L512.735 104.103C511.731 104.826 511.238 106.064 511.459 107.277C511.68 108.49 512.576 109.472 513.763 109.798L526.149 113.207L530.278 114.344L557.115 121.73C558.263 122.046 559.495 121.705 560.305 120.831C561.114 119.957 561.387 118.714 561.001 117.595L551.768 90.6253ZM524.814 81.7496C528.233 82.6906 531.77 80.68 532.711 77.2609C533.652 73.8418 531.642 70.3043 528.223 69.3633C524.804 68.4223 521.266 70.4329 520.325 73.852C519.384 77.2711 521.395 80.8085 524.814 81.7496Z" fill="#9271E7"/>
	</g>
	<g clip-path="url(#clip6_0_1)">
	<path d="M623.335 377.439C630.693 374.95 638.687 378.893 641.176 386.252L642.263 389.481C644.829 397.032 646.063 404.912 645.971 412.779L682.507 391.686C689.23 387.804 697.834 390.109 701.716 396.833C705.422 403.252 703.507 411.36 697.493 415.475C700.692 416.504 703.514 418.697 705.316 421.818C708.744 427.755 707.338 435.163 702.346 439.466C704.517 440.649 706.411 442.464 707.744 444.773C710.864 450.177 709.989 456.806 706.026 461.191C706.687 461.926 707.301 462.755 707.828 463.669C711.71 470.392 709.404 478.997 702.681 482.879L684.033 493.645C679.212 496.428 673.698 497.718 668.151 497.368L654.618 496.487C645.236 495.882 636.782 490.614 632.08 482.47L626.47 472.752L619.439 460.574L615.791 454.256C611.514 446.848 610.86 437.922 613.939 429.954L614.952 427.373C618.57 418.112 618.797 407.9 615.608 398.51L614.522 395.281C612.033 387.922 615.976 379.928 623.335 377.439ZM575.244 459.026L591.482 449.651C595.973 447.059 601.696 448.592 604.288 453.083L637.101 509.916C639.694 514.407 638.16 520.13 633.669 522.722L617.431 532.097C612.941 534.69 607.218 533.157 604.625 528.666L571.812 471.833C569.22 467.342 570.753 461.619 575.244 459.026Z" fill="white"/>
	</g>
	<g clip-path="url(#clip7_0_1)">
	<path d="M628.335 366.439C635.693 363.95 643.687 367.893 646.176 375.252L647.263 378.481C649.829 386.032 651.063 393.912 650.971 401.779L687.507 380.686C694.23 376.804 702.834 379.109 706.716 385.833C710.422 392.252 708.507 400.36 702.493 404.475C705.692 405.504 708.514 407.697 710.316 410.818C713.744 416.755 712.338 424.163 707.346 428.466C709.517 429.649 711.411 431.464 712.744 433.773C715.864 439.177 714.989 445.806 711.026 450.191C711.687 450.926 712.301 451.755 712.828 452.669C716.71 459.392 714.404 467.997 707.681 471.879L689.033 482.645C684.212 485.428 678.698 486.718 673.151 486.368L659.618 485.487C650.236 484.882 641.782 479.614 637.08 471.47L631.47 461.752L624.439 449.574L620.791 443.256C616.514 435.848 615.86 426.922 618.939 418.954L619.952 416.373C623.57 407.112 623.797 396.9 620.608 387.51L619.522 384.281C617.033 376.922 620.976 368.928 628.335 366.439ZM580.244 448.026L596.482 438.651C600.973 436.059 606.696 437.592 609.288 442.083L642.101 498.916C644.694 503.407 643.16 509.13 638.669 511.722L622.431 521.097C617.941 523.69 612.218 522.157 609.625 517.666L576.812 460.833C574.22 456.342 575.753 450.619 580.244 448.026Z" fill="#9271E7"/>
	</g>
	<defs>
	<clipPath id="clip0_0_1">
	<rect width="61.8583" height="70.6952" fill="white" transform="translate(0 554.955) rotate(-22.8608)"/>
	</clipPath>
	<clipPath id="clip1_0_1">
	<rect width="61.8583" height="70.6952" fill="white" transform="translate(5.11719 554.031) rotate(-22.8608)"/>
	</clipPath>
	<clipPath id="clip2_0_1">
	<rect width="103.108" height="91.0562" fill="white" transform="translate(26 37.6584) rotate(-15)"/>
	</clipPath>
	<clipPath id="clip3_0_1">
	<rect width="103.108" height="91.0562" fill="white" transform="translate(32.6792 26.6863) rotate(-15)"/>
	</clipPath>
	<clipPath id="clip4_0_1">
	<rect width="68.5161" height="68.5161" fill="white" transform="translate(511.061 56.8795) rotate(15.388)"/>
	</clipPath>
	<clipPath id="clip5_0_1">
	<rect width="68.5161" height="68.5161" fill="white" transform="translate(517.181 53) rotate(15.388)"/>
	</clipPath>
	<clipPath id="clip6_0_1">
	<rect width="150" height="150" fill="white" transform="translate(539 415) rotate(-30)"/>
	</clipPath>
	<clipPath id="clip7_0_1">
	<rect width="150" height="150" fill="white" transform="translate(544 404) rotate(-30)"/>
	</clipPath>
	</defs>
	</svg>
	