<svg width="463" height="339" viewBox="0 0 463 339" fill="none" xmlns="http://www.w3.org/2000/svg">
	<path d="M20.668 35.8281H41.625C50.7305 35.8281 58.1257 38.0202 63.8105 42.4043C66.653 44.6204 68.8691 47.3665 70.459 50.6426C72.0488 53.9186 72.8438 57.7487 72.8438 62.1328V106.938C72.8438 110.695 72.4342 113.995 71.6152 116.838C70.7962 119.68 69.7363 122.161 68.4355 124.281C67.0866 126.353 65.569 128.135 63.8828 129.629C62.1966 131.122 60.4863 132.327 58.752 133.242C54.7051 135.458 50.0078 136.711 44.6602 137H20.668C17.1992 137 14.694 136.277 13.1523 134.832C11.6107 133.387 10.6471 131.411 10.2617 128.906C9.8763 126.401 9.68359 123.559 9.68359 120.379V52.3047C9.68359 49.1732 9.8763 46.3789 10.2617 43.9219C10.6471 41.4167 11.6107 39.4414 13.1523 37.9961C14.694 36.5508 17.1992 35.8281 20.668 35.8281ZM41.0469 52.7383H31.6523V119.801H41.0469C43.0221 119.753 44.877 119.271 46.6113 118.355C48.2493 117.536 49.5742 116.308 50.5859 114.67C51.6458 112.984 52.1758 110.84 52.1758 108.238V65.6016C52.1758 62.7591 51.6458 60.3984 50.5859 58.5195C49.5742 56.6406 48.2493 55.2435 46.6113 54.3281C44.9733 53.4128 43.1185 52.8828 41.0469 52.7383ZM86.5742 107.66V64.4453C86.5742 59.724 87.2487 55.7734 88.5977 52.5938C89.9466 49.3177 91.681 46.5957 93.8008 44.4277C95.9206 42.2598 98.2331 40.5736 100.738 39.3691C101.991 38.7428 103.219 38.2129 104.424 37.7793C105.676 37.3457 106.905 36.9603 108.109 36.623C110.518 35.9967 112.662 35.6113 114.541 35.4668C116.468 35.3223 117.889 35.25 118.805 35.25H121.262C122.177 35.25 123.598 35.3223 125.525 35.4668C127.452 35.6113 129.596 35.9967 131.957 36.623C134.366 37.2012 136.823 38.1165 139.328 39.3691C141.737 40.5254 144.025 42.2357 146.193 44.5C148.217 46.668 149.879 49.39 151.18 52.666C152.529 55.8939 153.203 59.8203 153.203 64.4453V107.66C153.203 112.43 152.553 116.477 151.252 119.801C149.903 123.125 148.217 125.895 146.193 128.111C144.17 130.327 141.882 132.062 139.328 133.314C136.919 134.567 134.462 135.531 131.957 136.205C129.596 136.831 127.452 137.217 125.525 137.361C123.598 137.506 122.177 137.578 121.262 137.578H118.805C117.938 137.578 116.516 137.506 114.541 137.361C112.614 137.217 110.47 136.831 108.109 136.205C105.749 135.579 103.292 134.615 100.738 133.314C98.2331 132.062 95.9206 130.327 93.8008 128.111C91.7292 125.895 89.9948 123.125 88.5977 119.801C87.2487 116.477 86.5742 112.43 86.5742 107.66ZM110.566 63.2891V110.406C110.615 112.092 111.024 113.658 111.795 115.104C112.421 116.308 113.361 117.392 114.613 118.355C115.914 119.319 117.745 119.801 120.105 119.801C122.418 119.801 124.201 119.319 125.453 118.355C126.706 117.392 127.645 116.308 128.271 115.104C128.946 113.658 129.355 112.092 129.5 110.406V63.2891C129.355 61.6029 128.946 60.0371 128.271 58.5918C127.645 57.4355 126.706 56.3757 125.453 55.4121C124.201 54.4004 122.418 53.8945 120.105 53.8945C117.745 53.8945 115.914 54.4004 114.613 55.4121C113.361 56.3757 112.421 57.4355 111.795 58.5918C111.024 59.9889 110.615 61.5547 110.566 63.2891ZM19.3994 223.348H45.6221C48.2979 223.348 50.7952 223.548 53.1143 223.95C55.4779 224.306 57.3732 225.154 58.8003 226.492C60.272 227.83 61.0078 229.948 61.0078 232.847C61.0078 235.745 60.272 237.864 58.8003 239.202C57.3732 240.54 55.4779 241.409 53.1143 241.811C50.7952 242.167 48.2979 242.346 45.6221 242.346H29.7012V260.541H38.1299C40.7611 260.541 43.2139 260.719 45.4883 261.076C47.7627 261.388 49.5911 262.191 50.9736 263.484C52.4007 264.733 53.1143 266.785 53.1143 269.639C53.1143 272.493 52.4007 274.567 50.9736 275.86C49.5911 277.109 47.7627 277.911 45.4883 278.268C43.2139 278.58 40.7611 278.736 38.1299 278.736H29.7012V298.002H45.6221C48.2979 298.002 50.7952 298.18 53.1143 298.537C55.4779 298.894 57.3732 299.741 58.8003 301.079C60.272 302.372 61.0078 304.468 61.0078 307.367C61.0078 310.311 60.272 312.473 58.8003 313.856C57.3286 315.194 55.411 316.063 53.0474 316.465C50.7284 316.822 48.2533 317 45.6221 317H19.3994C16.2331 317 13.9364 316.309 12.5093 314.926C11.1268 313.544 10.2572 311.693 9.90039 309.374C9.54362 307.055 9.36523 304.468 9.36523 301.614V238.733C9.36523 235.879 9.54362 233.293 9.90039 230.974C10.2572 228.655 11.1268 226.804 12.5093 225.421C13.9364 224.039 16.2331 223.348 19.3994 223.348ZM85.4912 223.348H111.58C114.256 223.348 116.753 223.571 119.072 224.017C121.436 224.463 123.331 225.399 124.758 226.826C126.23 228.209 126.966 230.349 126.966 233.248C126.966 236.147 126.23 238.31 124.758 239.737C123.331 241.119 121.436 242.034 119.072 242.479C116.753 242.925 114.256 243.148 111.58 243.148H95.6592V260.541H104.088C106.764 260.541 109.261 260.742 111.58 261.143C113.944 261.5 115.839 262.392 117.266 263.819C118.738 265.201 119.474 267.409 119.474 270.441C119.474 273.474 118.76 275.704 117.333 277.131C115.906 278.513 114.011 279.405 111.647 279.807C109.328 280.163 106.808 280.342 104.088 280.342H95.6592V301.614C95.6592 304.513 95.4808 307.122 95.124 309.441C94.7673 311.76 93.8753 313.611 92.4482 314.993C91.0212 316.331 88.7021 317 85.4912 317C82.2803 317 79.9613 316.331 78.5342 314.993C77.1071 313.655 76.2152 311.827 75.8584 309.508C75.5016 307.189 75.3232 304.558 75.3232 301.614V238.733C75.3232 235.835 75.5016 233.226 75.8584 230.907C76.2152 228.588 77.1071 226.759 78.5342 225.421C79.9613 224.039 82.2803 223.348 85.4912 223.348ZM148.238 223.348H174.327C177.003 223.348 179.5 223.571 181.819 224.017C184.183 224.463 186.078 225.399 187.505 226.826C188.977 228.209 189.713 230.349 189.713 233.248C189.713 236.147 188.977 238.31 187.505 239.737C186.078 241.119 184.183 242.034 181.819 242.479C179.5 242.925 177.003 243.148 174.327 243.148H158.406V260.541H166.835C169.511 260.541 172.008 260.742 174.327 261.143C176.691 261.5 178.586 262.392 180.013 263.819C181.485 265.201 182.221 267.409 182.221 270.441C182.221 273.474 181.507 275.704 180.08 277.131C178.653 278.513 176.758 279.405 174.394 279.807C172.075 280.163 169.555 280.342 166.835 280.342H158.406V301.614C158.406 304.513 158.228 307.122 157.871 309.441C157.514 311.76 156.622 313.611 155.195 314.993C153.768 316.331 151.449 317 148.238 317C145.027 317 142.708 316.331 141.281 314.993C139.854 313.655 138.962 311.827 138.605 309.508C138.249 307.189 138.07 304.558 138.07 301.614V238.733C138.07 235.835 138.249 233.226 138.605 230.907C138.962 228.588 139.854 226.759 141.281 225.421C142.708 224.039 145.027 223.348 148.238 223.348ZM198.409 289.841V249.838C198.409 245.467 199.034 241.811 200.282 238.867C201.531 235.835 203.136 233.315 205.099 231.308C207.061 229.301 209.201 227.74 211.521 226.625C212.68 226.046 213.817 225.555 214.932 225.154C216.092 224.752 217.229 224.396 218.344 224.083C220.574 223.504 222.558 223.147 224.297 223.013C226.081 222.879 227.397 222.812 228.244 222.812H230.519C231.366 222.812 232.681 222.879 234.465 223.013C236.249 223.147 238.234 223.504 240.419 224.083C242.649 224.619 244.923 225.466 247.242 226.625C249.472 227.696 251.59 229.279 253.597 231.375C255.47 233.382 257.009 235.902 258.213 238.934C259.462 241.922 260.086 245.557 260.086 249.838V289.841C260.086 294.256 259.484 298.002 258.28 301.079C257.031 304.156 255.47 306.721 253.597 308.772C251.724 310.823 249.606 312.429 247.242 313.588C245.012 314.748 242.738 315.64 240.419 316.264C238.234 316.844 236.249 317.201 234.465 317.334C232.681 317.468 231.366 317.535 230.519 317.535H228.244C227.441 317.535 226.126 317.468 224.297 317.334C222.514 317.201 220.529 316.844 218.344 316.264C216.159 315.684 213.884 314.792 211.521 313.588C209.201 312.429 207.061 310.823 205.099 308.772C203.181 306.721 201.576 304.156 200.282 301.079C199.034 298.002 198.409 294.256 198.409 289.841ZM220.618 248.768V292.383C220.663 293.944 221.042 295.393 221.755 296.731C222.335 297.846 223.205 298.849 224.364 299.741C225.568 300.633 227.263 301.079 229.448 301.079C231.589 301.079 233.239 300.633 234.398 299.741C235.558 298.849 236.428 297.846 237.007 296.731C237.632 295.393 238.011 293.944 238.145 292.383V248.768C238.011 247.207 237.632 245.757 237.007 244.419C236.428 243.349 235.558 242.368 234.398 241.476C233.239 240.54 231.589 240.071 229.448 240.071C227.263 240.071 225.568 240.54 224.364 241.476C223.205 242.368 222.335 243.349 221.755 244.419C221.042 245.713 220.663 247.162 220.618 248.768ZM276.408 301.48V238.6C276.408 235.745 276.564 233.181 276.876 230.907C277.233 228.588 278.125 226.759 279.552 225.421C280.979 224.039 283.276 223.348 286.442 223.348H308.518C314.048 223.615 318.953 224.775 323.234 226.826C325.063 227.718 326.847 228.811 328.586 230.104C330.37 231.397 331.953 233.025 333.335 234.987C334.718 236.905 335.833 239.202 336.68 241.877C337.528 244.509 337.951 247.563 337.951 251.042C337.951 252.514 337.728 254.208 337.282 256.126C336.836 258.044 336.1 260.05 335.075 262.146C334.406 263.574 333.402 265.023 332.064 266.495C330.816 267.877 329.277 269.148 327.449 270.308C325.665 271.467 323.547 272.404 321.094 273.117C324.751 274.544 327.917 276.796 330.593 279.874C333.269 282.951 334.606 287.21 334.606 292.65V302.149C334.606 302.685 334.74 303.131 335.008 303.487C335.275 303.844 335.543 304.156 335.811 304.424C336.836 305.45 337.461 306.364 337.684 307.167C337.862 307.88 337.951 308.527 337.951 309.106C337.951 312.094 336.859 314.257 334.673 315.595C332.488 316.889 330.013 317.535 327.248 317.535C324.126 317.535 321.205 316.599 318.485 314.726C315.764 312.808 314.404 310.177 314.404 306.832V292.65C314.404 288.548 313.735 285.27 312.397 282.817C311.06 280.364 308.295 279.138 304.103 279.138H296.61V301.48C296.61 304.424 296.432 307.077 296.075 309.441C295.718 311.76 294.826 313.611 293.399 314.993C292.017 316.331 289.698 317 286.442 317C283.276 317 280.979 316.331 279.552 314.993C278.125 313.611 277.233 311.76 276.876 309.441C276.564 307.077 276.408 304.424 276.408 301.48ZM296.61 239.135V264.153H305.708C307.938 264.064 309.945 263.529 311.729 262.548C313.512 261.611 314.962 260.207 316.077 258.333C317.192 256.46 317.749 254.03 317.749 251.042C317.749 248.366 317.192 246.159 316.077 244.419C315.006 242.68 313.646 241.409 311.996 240.606C310.391 239.759 308.473 239.269 306.243 239.135H296.61ZM356.414 223.348H390.396C393.072 223.348 395.57 223.548 397.889 223.95C400.208 224.306 402.081 225.154 403.508 226.492C404.935 227.83 405.648 229.948 405.648 232.847C405.648 235.701 404.935 237.797 403.508 239.135C402.081 240.473 400.208 241.342 397.889 241.744C395.57 242.145 393.072 242.346 390.396 242.346H383.573V301.748C383.573 304.602 383.395 307.189 383.038 309.508C382.681 311.827 381.789 313.655 380.362 314.993C378.98 316.331 376.661 317 373.405 317C370.194 317 367.875 316.331 366.448 314.993C365.021 313.655 364.129 311.827 363.772 309.508C363.416 307.189 363.237 304.602 363.237 301.748V242.346H356.414C353.783 242.346 351.285 242.145 348.922 241.744C346.603 241.342 344.73 240.473 343.303 239.135C341.876 237.797 341.162 235.701 341.162 232.847C341.162 229.948 341.876 227.83 343.303 226.492C344.73 225.154 346.603 224.306 348.922 223.95C351.285 223.548 353.783 223.348 356.414 223.348Z" fill="#9271E7"/>
	<path d="M203.789 44.7891L226.77 107.082H228.504V47.1016C228.504 43.681 229.082 40.959 230.238 38.9355C231.443 36.8639 234.092 35.8281 238.188 35.8281C242.764 35.8281 245.679 36.8158 246.932 38.791C248.232 40.7663 248.883 43.5365 248.883 47.1016V120.379C248.883 123.51 248.69 126.353 248.305 128.906C247.967 131.411 247.052 133.387 245.559 134.832C244.065 136.277 241.608 137 238.188 137H228.648C225.902 137 223.662 136.35 221.928 135.049C220.193 133.748 218.82 132.158 217.809 130.279C216.797 128.4 215.978 126.594 215.352 124.859L193.527 65.7461H191.793V125.727C191.793 129.147 191.215 131.893 190.059 133.965C188.902 135.988 186.253 137 182.109 137C177.484 137 174.521 136.012 173.221 134.037C171.92 132.062 171.27 129.292 171.27 125.727V52.4492C171.27 49.3177 171.438 46.4993 171.775 43.9941C172.161 41.4889 173.124 39.5137 174.666 38.0684C176.208 36.5749 178.689 35.8281 182.109 35.8281H191.648C194.057 35.8281 196.008 36.3099 197.502 37.2734C199.044 38.1888 200.296 39.2005 201.26 40.3086C202.223 41.4648 203.066 42.9583 203.789 44.7891ZM266.371 107.66V64.4453C266.371 59.724 267.046 55.7734 268.395 52.5938C269.743 49.3177 271.478 46.5957 273.598 44.4277C275.717 42.2598 278.03 40.5736 280.535 39.3691C281.788 38.7428 283.016 38.2129 284.221 37.7793C285.473 37.3457 286.702 36.9603 287.906 36.623C290.315 35.9967 292.459 35.6113 294.338 35.4668C296.265 35.3223 297.686 35.25 298.602 35.25H301.059C301.974 35.25 303.395 35.3223 305.322 35.4668C307.249 35.6113 309.393 35.9967 311.754 36.623C314.163 37.2012 316.62 38.1165 319.125 39.3691C321.534 40.5254 323.822 42.2357 325.99 44.5C328.014 46.668 329.676 49.39 330.977 52.666C332.326 55.8939 333 59.8203 333 64.4453V107.66C333 112.43 332.35 116.477 331.049 119.801C329.7 123.125 328.014 125.895 325.99 128.111C323.967 130.327 321.678 132.062 319.125 133.314C316.716 134.567 314.259 135.531 311.754 136.205C309.393 136.831 307.249 137.217 305.322 137.361C303.395 137.506 301.974 137.578 301.059 137.578H298.602C297.734 137.578 296.313 137.506 294.338 137.361C292.411 137.217 290.267 136.831 287.906 136.205C285.546 135.579 283.089 134.615 280.535 133.314C278.03 132.062 275.717 130.327 273.598 128.111C271.526 125.895 269.792 123.125 268.395 119.801C267.046 116.477 266.371 112.43 266.371 107.66ZM290.363 63.2891V110.406C290.411 112.092 290.821 113.658 291.592 115.104C292.218 116.308 293.158 117.392 294.41 118.355C295.711 119.319 297.542 119.801 299.902 119.801C302.215 119.801 303.997 119.319 305.25 118.355C306.503 117.392 307.442 116.308 308.068 115.104C308.743 113.658 309.152 112.092 309.297 110.406V63.2891C309.152 61.6029 308.743 60.0371 308.068 58.5918C307.442 57.4355 306.503 56.3757 305.25 55.4121C303.997 54.4004 302.215 53.8945 299.902 53.8945C297.542 53.8945 295.711 54.4004 294.41 55.4121C293.158 56.3757 292.218 57.4355 291.592 58.5918C290.821 59.9889 290.411 61.5547 290.363 63.2891ZM354.535 35.8281H391.246C394.137 35.8281 396.835 36.0449 399.34 36.4785C401.845 36.8639 403.868 37.7793 405.41 39.2246C406.952 40.6699 407.723 42.9583 407.723 46.0898C407.723 49.1732 406.952 51.4375 405.41 52.8828C403.868 54.3281 401.845 55.2676 399.34 55.7012C396.835 56.1348 394.137 56.3516 391.246 56.3516H383.875V120.523C383.875 123.607 383.682 126.401 383.297 128.906C382.911 131.411 381.948 133.387 380.406 134.832C378.913 136.277 376.408 137 372.891 137C369.422 137 366.917 136.277 365.375 134.832C363.833 133.387 362.87 131.411 362.484 128.906C362.099 126.401 361.906 123.607 361.906 120.523V56.3516H354.535C351.693 56.3516 348.995 56.1348 346.441 55.7012C343.936 55.2676 341.913 54.3281 340.371 52.8828C338.829 51.4375 338.059 49.1732 338.059 46.0898C338.059 42.9583 338.829 40.6699 340.371 39.2246C341.913 37.7793 343.936 36.8639 346.441 36.4785C348.995 36.0449 351.693 35.8281 354.535 35.8281Z" fill="#ECC39A"/>
	<mask id="mask0_305_347" style="mask-type:alpha" maskUnits="userSpaceOnUse" x="9" y="35" width="399" height="283">
	<path d="M20.668 35.8281H41.625C50.7305 35.8281 58.1257 38.0202 63.8105 42.4043C66.653 44.6204 68.8691 47.3665 70.459 50.6426C72.0488 53.9186 72.8438 57.7487 72.8438 62.1328V106.938C72.8438 110.695 72.4342 113.995 71.6152 116.838C70.7962 119.68 69.7363 122.161 68.4355 124.281C67.0866 126.353 65.569 128.135 63.8828 129.629C62.1966 131.122 60.4863 132.327 58.752 133.242C54.7051 135.458 50.0078 136.711 44.6602 137H20.668C17.1992 137 14.694 136.277 13.1523 134.832C11.6107 133.387 10.6471 131.411 10.2617 128.906C9.8763 126.401 9.68359 123.559 9.68359 120.379V52.3047C9.68359 49.1732 9.8763 46.3789 10.2617 43.9219C10.6471 41.4167 11.6107 39.4414 13.1523 37.9961C14.694 36.5508 17.1992 35.8281 20.668 35.8281ZM41.0469 52.7383H31.6523V119.801H41.0469C43.0221 119.753 44.877 119.271 46.6113 118.355C48.2493 117.536 49.5742 116.308 50.5859 114.67C51.6458 112.984 52.1758 110.84 52.1758 108.238V65.6016C52.1758 62.7591 51.6458 60.3984 50.5859 58.5195C49.5742 56.6406 48.2493 55.2435 46.6113 54.3281C44.9733 53.4128 43.1185 52.8828 41.0469 52.7383ZM86.5742 107.66V64.4453C86.5742 59.724 87.2487 55.7734 88.5977 52.5938C89.9466 49.3177 91.681 46.5957 93.8008 44.4277C95.9206 42.2598 98.2331 40.5736 100.738 39.3691C101.991 38.7428 103.219 38.2129 104.424 37.7793C105.676 37.3457 106.905 36.9603 108.109 36.623C110.518 35.9967 112.662 35.6113 114.541 35.4668C116.468 35.3223 117.889 35.25 118.805 35.25H121.262C122.177 35.25 123.598 35.3223 125.525 35.4668C127.452 35.6113 129.596 35.9967 131.957 36.623C134.366 37.2012 136.823 38.1165 139.328 39.3691C141.737 40.5254 144.025 42.2357 146.193 44.5C148.217 46.668 149.879 49.39 151.18 52.666C152.529 55.8939 153.203 59.8203 153.203 64.4453V107.66C153.203 112.43 152.553 116.477 151.252 119.801C149.903 123.125 148.217 125.895 146.193 128.111C144.17 130.327 141.882 132.062 139.328 133.314C136.919 134.567 134.462 135.531 131.957 136.205C129.596 136.831 127.452 137.217 125.525 137.361C123.598 137.506 122.177 137.578 121.262 137.578H118.805C117.938 137.578 116.516 137.506 114.541 137.361C112.614 137.217 110.47 136.831 108.109 136.205C105.749 135.579 103.292 134.615 100.738 133.314C98.2331 132.062 95.9206 130.327 93.8008 128.111C91.7292 125.895 89.9948 123.125 88.5977 119.801C87.2487 116.477 86.5742 112.43 86.5742 107.66ZM110.566 63.2891V110.406C110.615 112.092 111.024 113.658 111.795 115.104C112.421 116.308 113.361 117.392 114.613 118.355C115.914 119.319 117.745 119.801 120.105 119.801C122.418 119.801 124.201 119.319 125.453 118.355C126.706 117.392 127.645 116.308 128.271 115.104C128.946 113.658 129.355 112.092 129.5 110.406V63.2891C129.355 61.6029 128.946 60.0371 128.271 58.5918C127.645 57.4355 126.706 56.3757 125.453 55.4121C124.201 54.4004 122.418 53.8945 120.105 53.8945C117.745 53.8945 115.914 54.4004 114.613 55.4121C113.361 56.3757 112.421 57.4355 111.795 58.5918C111.024 59.9889 110.615 61.5547 110.566 63.2891ZM19.3994 223.348H45.6221C48.2979 223.348 50.7952 223.548 53.1143 223.95C55.4779 224.306 57.3732 225.154 58.8003 226.492C60.272 227.83 61.0078 229.948 61.0078 232.847C61.0078 235.745 60.272 237.864 58.8003 239.202C57.3732 240.54 55.4779 241.409 53.1143 241.811C50.7952 242.167 48.2979 242.346 45.6221 242.346H29.7012V260.541H38.1299C40.7611 260.541 43.2139 260.719 45.4883 261.076C47.7627 261.388 49.5911 262.191 50.9736 263.484C52.4007 264.733 53.1143 266.785 53.1143 269.639C53.1143 272.493 52.4007 274.567 50.9736 275.86C49.5911 277.109 47.7627 277.911 45.4883 278.268C43.2139 278.58 40.7611 278.736 38.1299 278.736H29.7012V298.002H45.6221C48.2979 298.002 50.7952 298.18 53.1143 298.537C55.4779 298.894 57.3732 299.741 58.8003 301.079C60.272 302.372 61.0078 304.468 61.0078 307.367C61.0078 310.311 60.272 312.473 58.8003 313.856C57.3286 315.194 55.411 316.063 53.0474 316.465C50.7284 316.822 48.2533 317 45.6221 317H19.3994C16.2331 317 13.9364 316.309 12.5093 314.926C11.1268 313.544 10.2572 311.693 9.90039 309.374C9.54362 307.055 9.36523 304.468 9.36523 301.614V238.733C9.36523 235.879 9.54362 233.293 9.90039 230.974C10.2572 228.655 11.1268 226.804 12.5093 225.421C13.9364 224.039 16.2331 223.348 19.3994 223.348ZM85.4912 223.348H111.58C114.256 223.348 116.753 223.571 119.072 224.017C121.436 224.463 123.331 225.399 124.758 226.826C126.23 228.209 126.966 230.349 126.966 233.248C126.966 236.147 126.23 238.31 124.758 239.737C123.331 241.119 121.436 242.034 119.072 242.479C116.753 242.925 114.256 243.148 111.58 243.148H95.6592V260.541H104.088C106.764 260.541 109.261 260.742 111.58 261.143C113.944 261.5 115.839 262.392 117.266 263.819C118.738 265.201 119.474 267.409 119.474 270.441C119.474 273.474 118.76 275.704 117.333 277.131C115.906 278.513 114.011 279.405 111.647 279.807C109.328 280.163 106.808 280.342 104.088 280.342H95.6592V301.614C95.6592 304.513 95.4808 307.122 95.124 309.441C94.7673 311.76 93.8753 313.611 92.4482 314.993C91.0212 316.331 88.7021 317 85.4912 317C82.2803 317 79.9613 316.331 78.5342 314.993C77.1071 313.655 76.2152 311.827 75.8584 309.508C75.5016 307.189 75.3232 304.558 75.3232 301.614V238.733C75.3232 235.835 75.5016 233.226 75.8584 230.907C76.2152 228.588 77.1071 226.759 78.5342 225.421C79.9613 224.039 82.2803 223.348 85.4912 223.348ZM148.238 223.348H174.327C177.003 223.348 179.5 223.571 181.819 224.017C184.183 224.463 186.078 225.399 187.505 226.826C188.977 228.209 189.713 230.349 189.713 233.248C189.713 236.147 188.977 238.31 187.505 239.737C186.078 241.119 184.183 242.034 181.819 242.479C179.5 242.925 177.003 243.148 174.327 243.148H158.406V260.541H166.835C169.511 260.541 172.008 260.742 174.327 261.143C176.691 261.5 178.586 262.392 180.013 263.819C181.485 265.201 182.221 267.409 182.221 270.441C182.221 273.474 181.507 275.704 180.08 277.131C178.653 278.513 176.758 279.405 174.394 279.807C172.075 280.163 169.555 280.342 166.835 280.342H158.406V301.614C158.406 304.513 158.228 307.122 157.871 309.441C157.514 311.76 156.622 313.611 155.195 314.993C153.768 316.331 151.449 317 148.238 317C145.027 317 142.708 316.331 141.281 314.993C139.854 313.655 138.962 311.827 138.605 309.508C138.249 307.189 138.07 304.558 138.07 301.614V238.733C138.07 235.835 138.249 233.226 138.605 230.907C138.962 228.588 139.854 226.759 141.281 225.421C142.708 224.039 145.027 223.348 148.238 223.348ZM198.409 289.841V249.838C198.409 245.467 199.034 241.811 200.282 238.867C201.531 235.835 203.136 233.315 205.099 231.308C207.061 229.301 209.201 227.74 211.521 226.625C212.68 226.046 213.817 225.555 214.932 225.154C216.092 224.752 217.229 224.396 218.344 224.083C220.574 223.504 222.558 223.147 224.297 223.013C226.081 222.879 227.397 222.812 228.244 222.812H230.519C231.366 222.812 232.681 222.879 234.465 223.013C236.249 223.147 238.234 223.504 240.419 224.083C242.649 224.619 244.923 225.466 247.242 226.625C249.472 227.696 251.59 229.279 253.597 231.375C255.47 233.382 257.009 235.902 258.213 238.934C259.462 241.922 260.086 245.557 260.086 249.838V289.841C260.086 294.256 259.484 298.002 258.28 301.079C257.031 304.156 255.47 306.721 253.597 308.772C251.724 310.823 249.606 312.429 247.242 313.588C245.012 314.748 242.738 315.64 240.419 316.264C238.234 316.844 236.249 317.201 234.465 317.334C232.681 317.468 231.366 317.535 230.519 317.535H228.244C227.441 317.535 226.126 317.468 224.297 317.334C222.514 317.201 220.529 316.844 218.344 316.264C216.159 315.684 213.884 314.792 211.521 313.588C209.201 312.429 207.061 310.823 205.099 308.772C203.181 306.721 201.576 304.156 200.282 301.079C199.034 298.002 198.409 294.256 198.409 289.841ZM220.618 248.768V292.383C220.663 293.944 221.042 295.393 221.755 296.731C222.335 297.846 223.205 298.849 224.364 299.741C225.568 300.633 227.263 301.079 229.448 301.079C231.589 301.079 233.239 300.633 234.398 299.741C235.558 298.849 236.428 297.846 237.007 296.731C237.632 295.393 238.011 293.944 238.145 292.383V248.768C238.011 247.207 237.632 245.757 237.007 244.419C236.428 243.349 235.558 242.368 234.398 241.476C233.239 240.54 231.589 240.071 229.448 240.071C227.263 240.071 225.568 240.54 224.364 241.476C223.205 242.368 222.335 243.349 221.755 244.419C221.042 245.713 220.663 247.162 220.618 248.768ZM276.408 301.48V238.6C276.408 235.745 276.564 233.181 276.876 230.907C277.233 228.588 278.125 226.759 279.552 225.421C280.979 224.039 283.276 223.348 286.442 223.348H308.518C314.048 223.615 318.953 224.775 323.234 226.826C325.063 227.718 326.847 228.811 328.586 230.104C330.37 231.397 331.953 233.025 333.335 234.987C334.718 236.905 335.833 239.202 336.68 241.877C337.528 244.509 337.951 247.563 337.951 251.042C337.951 252.514 337.728 254.208 337.282 256.126C336.836 258.044 336.1 260.05 335.075 262.146C334.406 263.574 333.402 265.023 332.064 266.495C330.816 267.877 329.277 269.148 327.449 270.308C325.665 271.467 323.547 272.404 321.094 273.117C324.751 274.544 327.917 276.796 330.593 279.874C333.269 282.951 334.606 287.21 334.606 292.65V302.149C334.606 302.685 334.74 303.131 335.008 303.487C335.275 303.844 335.543 304.156 335.811 304.424C336.836 305.45 337.461 306.364 337.684 307.167C337.862 307.88 337.951 308.527 337.951 309.106C337.951 312.094 336.859 314.257 334.673 315.595C332.488 316.889 330.013 317.535 327.248 317.535C324.126 317.535 321.205 316.599 318.485 314.726C315.764 312.808 314.404 310.177 314.404 306.832V292.65C314.404 288.548 313.735 285.27 312.397 282.817C311.06 280.364 308.295 279.138 304.103 279.138H296.61V301.48C296.61 304.424 296.432 307.077 296.075 309.441C295.718 311.76 294.826 313.611 293.399 314.993C292.017 316.331 289.698 317 286.442 317C283.276 317 280.979 316.331 279.552 314.993C278.125 313.611 277.233 311.76 276.876 309.441C276.564 307.077 276.408 304.424 276.408 301.48ZM296.61 239.135V264.153H305.708C307.938 264.064 309.945 263.529 311.729 262.548C313.512 261.611 314.962 260.207 316.077 258.333C317.192 256.46 317.749 254.03 317.749 251.042C317.749 248.366 317.192 246.159 316.077 244.419C315.006 242.68 313.646 241.409 311.996 240.606C310.391 239.759 308.473 239.269 306.243 239.135H296.61ZM356.414 223.348H390.396C393.072 223.348 395.57 223.548 397.889 223.95C400.208 224.306 402.081 225.154 403.508 226.492C404.935 227.83 405.648 229.948 405.648 232.847C405.648 235.701 404.935 237.797 403.508 239.135C402.081 240.473 400.208 241.342 397.889 241.744C395.57 242.145 393.072 242.346 390.396 242.346H383.573V301.748C383.573 304.602 383.395 307.189 383.038 309.508C382.681 311.827 381.789 313.655 380.362 314.993C378.98 316.331 376.661 317 373.405 317C370.194 317 367.875 316.331 366.448 314.993C365.021 313.655 364.129 311.827 363.772 309.508C363.416 307.189 363.237 304.602 363.237 301.748V242.346H356.414C353.783 242.346 351.285 242.145 348.922 241.744C346.603 241.342 344.73 240.473 343.303 239.135C341.876 237.797 341.162 235.701 341.162 232.847C341.162 229.948 341.876 227.83 343.303 226.492C344.73 225.154 346.603 224.306 348.922 223.95C351.285 223.548 353.783 223.348 356.414 223.348Z" fill="#9271E7"/>
	<path d="M203.789 44.7891L226.77 107.082H228.504V47.1016C228.504 43.681 229.082 40.959 230.238 38.9355C231.443 36.8639 234.092 35.8281 238.188 35.8281C242.764 35.8281 245.679 36.8158 246.932 38.791C248.232 40.7663 248.883 43.5365 248.883 47.1016V120.379C248.883 123.51 248.69 126.353 248.305 128.906C247.967 131.411 247.052 133.387 245.559 134.832C244.065 136.277 241.608 137 238.188 137H228.648C225.902 137 223.662 136.35 221.928 135.049C220.193 133.748 218.82 132.158 217.809 130.279C216.797 128.4 215.978 126.594 215.352 124.859L193.527 65.7461H191.793V125.727C191.793 129.147 191.215 131.893 190.059 133.965C188.902 135.988 186.253 137 182.109 137C177.484 137 174.521 136.012 173.221 134.037C171.92 132.062 171.27 129.292 171.27 125.727V52.4492C171.27 49.3177 171.438 46.4993 171.775 43.9941C172.161 41.4889 173.124 39.5137 174.666 38.0684C176.208 36.5749 178.689 35.8281 182.109 35.8281H191.648C194.057 35.8281 196.008 36.3099 197.502 37.2734C199.044 38.1888 200.296 39.2005 201.26 40.3086C202.223 41.4648 203.066 42.9583 203.789 44.7891ZM266.371 107.66V64.4453C266.371 59.724 267.046 55.7734 268.395 52.5938C269.743 49.3177 271.478 46.5957 273.598 44.4277C275.717 42.2598 278.03 40.5736 280.535 39.3691C281.788 38.7428 283.016 38.2129 284.221 37.7793C285.473 37.3457 286.702 36.9603 287.906 36.623C290.315 35.9967 292.459 35.6113 294.338 35.4668C296.265 35.3223 297.686 35.25 298.602 35.25H301.059C301.974 35.25 303.395 35.3223 305.322 35.4668C307.249 35.6113 309.393 35.9967 311.754 36.623C314.163 37.2012 316.62 38.1165 319.125 39.3691C321.534 40.5254 323.822 42.2357 325.99 44.5C328.014 46.668 329.676 49.39 330.977 52.666C332.326 55.8939 333 59.8203 333 64.4453V107.66C333 112.43 332.35 116.477 331.049 119.801C329.7 123.125 328.014 125.895 325.99 128.111C323.967 130.327 321.678 132.062 319.125 133.314C316.716 134.567 314.259 135.531 311.754 136.205C309.393 136.831 307.249 137.217 305.322 137.361C303.395 137.506 301.974 137.578 301.059 137.578H298.602C297.734 137.578 296.313 137.506 294.338 137.361C292.411 137.217 290.267 136.831 287.906 136.205C285.546 135.579 283.089 134.615 280.535 133.314C278.03 132.062 275.717 130.327 273.598 128.111C271.526 125.895 269.792 123.125 268.395 119.801C267.046 116.477 266.371 112.43 266.371 107.66ZM290.363 63.2891V110.406C290.411 112.092 290.821 113.658 291.592 115.104C292.218 116.308 293.158 117.392 294.41 118.355C295.711 119.319 297.542 119.801 299.902 119.801C302.215 119.801 303.997 119.319 305.25 118.355C306.503 117.392 307.442 116.308 308.068 115.104C308.743 113.658 309.152 112.092 309.297 110.406V63.2891C309.152 61.6029 308.743 60.0371 308.068 58.5918C307.442 57.4355 306.503 56.3757 305.25 55.4121C303.997 54.4004 302.215 53.8945 299.902 53.8945C297.542 53.8945 295.711 54.4004 294.41 55.4121C293.158 56.3757 292.218 57.4355 291.592 58.5918C290.821 59.9889 290.411 61.5547 290.363 63.2891ZM354.535 35.8281H391.246C394.137 35.8281 396.835 36.0449 399.34 36.4785C401.845 36.8639 403.868 37.7793 405.41 39.2246C406.952 40.6699 407.723 42.9583 407.723 46.0898C407.723 49.1732 406.952 51.4375 405.41 52.8828C403.868 54.3281 401.845 55.2676 399.34 55.7012C396.835 56.1348 394.137 56.3516 391.246 56.3516H383.875V120.523C383.875 123.607 383.682 126.401 383.297 128.906C382.911 131.411 381.948 133.387 380.406 134.832C378.913 136.277 376.408 137 372.891 137C369.422 137 366.917 136.277 365.375 134.832C363.833 133.387 362.87 131.411 362.484 128.906C362.099 126.401 361.906 123.607 361.906 120.523V56.3516H354.535C351.693 56.3516 348.995 56.1348 346.441 55.7012C343.936 55.2676 341.913 54.3281 340.371 52.8828C338.829 51.4375 338.059 49.1732 338.059 46.0898C338.059 42.9583 338.829 40.6699 340.371 39.2246C341.913 37.7793 343.936 36.8639 346.441 36.4785C348.995 36.0449 351.693 35.8281 354.535 35.8281Z" fill="#ECC39A"/>
	</mask>
	<g mask="url(#mask0_305_347)">
	<path d="M274 64.5002C269.5 62.0001 269 65.5002 267 70.0001C258.333 54.3334 261 33.8002 299 31.0002C337 28.2002 334 47.3334 333 63.0001C330.348 64.3081 323.5 74.5002 316.5 68.5002C308.5 55.5002 292.102 67.1294 286.5 74.5002C279.031 81.9692 278.263 68.8032 274.786 65.129L274 64.5002Z" fill="#9271E7"/>
	</g>
	<rect x="317.962" y="52.8794" width="9" height="3" rx="1.5" transform="rotate(-35.3426 317.962 52.8794)" fill="#F370FF"/>
	<rect x="308.036" y="48.3379" width="4.83778" height="1.61259" rx="0.806297" transform="rotate(-7.38179 308.036 48.3379)" fill="#F370FF"/>
	<rect x="293.865" y="51.5625" width="4.15295" height="1.38432" rx="0.692159" transform="rotate(-60 293.865 51.5625)" fill="#F370FF"/>
	<rect x="297.005" y="37.252" width="11" height="4" rx="2" transform="rotate(19.839 297.005 37.252)" fill="#F370FF"/>
	<rect x="285.531" y="52.5112" width="3.93008" height="1.47378" rx="0.73689" transform="rotate(16.2031 285.531 52.5112)" fill="#F370FF"/>
	<rect x="280.828" y="43.3413" width="6.37164" height="2.38936" rx="1.19468" transform="rotate(-14.4536 280.828 43.3413)" fill="#F370FF"/>
	<rect x="267.75" y="56.936" width="8" height="3" rx="1.5" transform="rotate(-26.4144 267.75 56.936)" fill="#F370FF"/>
	</svg>
	